{"title":"Hulk 1-2  Duology 2003-2008 720p.x264","uid":7310263,"size":1673936158,"categoryP":"video","categoryS":"hd___movies","magnet":"?xt=urn:btih:339f9db3f34f3fd21cf14c6fecefaffb00528caf&amp;dn=Hulk+1-2++Duology+2003-2008+720p.x264&amp;tr=udp%3A%2F%2Ftracker.openbittorrent.com%3A80&amp;tr=udp%3A%2F%2Fopen.demonii.com%3A1337&amp;tr=udp%3A%2F%2Ftracker.coppersurfer.tk%3A6969&amp;tr=udp%3A%2F%2Fexodus.desync.com%3A6969","seeders":0,"leechers":1,"uploader":"ster9","files":5,"time":1338322740,"description":"[img]http://img802.imageshack.us/img802/7859/hulk2003.jpg[/img]\n\nNAME : HULK2003\nFORMAT : MP4\nFILE SIZE : 0.97GB\nSUBTITLES : ENGLISH\nENCODER   : StErN9\n\nVIDEO SPECS :\n\n      Format : AVC\n      Duration : 2h 18mn\n      Bit rate : 840 Kbps\n      Maximum bit rate : 5 438 Kbps\n      Width : 1 280 pixels\n      Height : 536 pixels\n      Display aspect ratio : 2.40:1\n      Frame rate : 23.976 fps\n      Stream size : 830 MiB (83%)\n\nAUDIO SPECS:\n\n      Format : AAC\n      Codec ID : 40\n      Duration : 2h 18mn\n      Bit rate mode : Variable\n      Bit rate : 170 Kbps\n      Maximum bit rate : 220 Kbps\n      Channel(s) : 2 channels\n      Channel positions : Front: L R\n      Sampling rate : 48.0 KHz\n      Compression mode : Lossy\n      Stream size : 168 MiB (17%)\n\n IMDb :   [url]http://www.imdb.com/title/tt0286716/[/url]\n\nSNAPSHOT :[img]http://img855.imageshack.us/img855/504/hul.png[/img]\n\n[img]http://img269.imageshack.us/img269/8318/hulk1g.jpg[/img]\nNAME : The Incredible Hulk 2-2008\nFORMAT : MP4\nFILE SIZE : 0.97GB\nSUBTITLES : ENGLISH\nENCODER   : StErN9\n\nVIDEO SPECS :\n       \n      Format : AVC\n      Duration : 1h 52mn\n      Bit rate : 771 Kbps\n      Maximum bit rate : 5 280 Kbps\n      Width : 1 280 pixels\n      Height : 544 pixels\n      Display aspect ratio : 2.35:1\n      Frame rate mode : Constant\n      Frame rate : 23.976 fps\n      Stream size : 618 MiB (62%)\n   \n     AUDIO SPECS :\n\n      Format : AAC\n      Codec ID : 40\n      Duration : 1h 52mn\n      Bit rate mode : Variable\n      Bit rate : 472 Kbps\n      Maximum bit rate : 549 Kbps\n      Channel(s) : 6 channels\n      Channel positions : Front: L C R, Side: L R, LFE\n      Sampling rate : 48.0 KHz\n      Compression mode : Lossy\n      Stream size : 379 MiB (38%)\n    IMDb :  [url]http://www.imdb.com/title/tt0800080/[/url]\n\nSNAPSHOT : [img]http://img38.imageshack.us/img38/4863/hulk2x.png[/img]","torrent":{"xt":"urn:btih:339f9db3f34f3fd21cf14c6fecefaffb00528caf","amp;dn":"Hulk+1-2++Duology+2003-2008+720p.x264","amp;tr":["udp%3A%2F%2Ftracker.openbittorrent.com%3A80","udp%3A%2F%2Fopen.demonii.com%3A1337","udp%3A%2F%2Ftracker.coppersurfer.tk%3A6969","udp%3A%2F%2Fexodus.desync.com%3A6969"],"infoHash":"339f9db3f34f3fd21cf14c6fecefaffb00528caf","infoHashBuffer":{"type":"Buffer","data":[51,159,157,179,243,79,63,210,28,241,76,111,236,239,175,251,0,82,140,175]},"announce":[],"urlList":[]}}